<?xml version="1.0" standalone="no"?>
<!DOCTYPE svg PUBLIC "-//W3C//DTD SVG 20010904//EN"
 "http://www.w3.org/TR/2001/REC-SVG-20010904/DTD/svg10.dtd">
<svg version="1.0" xmlns="http://www.w3.org/2000/svg"
 width="1920.000000pt" height="1081.000000pt" viewBox="0 0 1920.000000 1081.000000"
 preserveAspectRatio="xMidYMid meet">

<g transform="translate(0.000000,1081.000000) scale(0.100000,-0.100000)"
fill="#000000" stroke="none">
<path d="M8025 9113 c-196 -28 -352 -154 -414 -336 -31 -89 -36 -208 -13 -289
62 -216 263 -368 487 -368 283 0 521 243 501 511 -14 183 -90 314 -237 409
-84 54 -229 87 -324 73z"/>
<path d="M17601 8283 c1 -504 5 -820 10 -794 46 237 205 449 419 560 134 70
204 86 370 86 166 0 236 -16 370 -86 214 -111 372 -322 419 -560 6 -28 8 104
7 354 l-1 398 -720 397 c-396 219 -755 417 -797 441 l-78 42 1 -838z"/>
<path d="M17600 7308 c1 -18 7 -67 14 -108 63 -345 341 -608 692 -652 357 -45
711 169 840 507 27 72 53 194 54 253 l0 32 -355 0 -355 0 0 -135 0 -135 -90 0
-90 0 0 135 0 135 -355 0 -355 0 0 -32z"/>
<path d="M1808 1109 l-3 -212 -139 209 c-128 191 -140 207 -152 189 -7 -11
-67 -99 -133 -195 -203 -296 -736 -1083 -739 -1092 -2 -4 260 -8 582 -8 l586
0 0 448 0 447 298 -447 297 -447 363 -1 362 0 0 660 0 660 -660 0 -660 0 -2
-211z"/>
<path d="M17610 660 l0 -660 795 0 795 0 0 660 0 660 -795 0 -795 0 0 -660z"/>
</g>
</svg>
